<svg width="174" height="149" viewBox="0 0 174 149" fill="none" xmlns="http://www.w3.org/2000/svg">
<g opacity="0.63" filter="url(#filter0_d_601_7733)">
<path d="M156.263 33.7839C156.037 33.7462 155.148 32.8043 155.116 32.5693C155.289 32.3059 155.409 32.0767 154.89 32.1672C153.681 32.3773 152.484 32.506 151.47 31.6607C151.314 31.6267 151.16 31.5937 151.004 31.5596C150.424 31.3786 149.797 31.6707 149.221 31.4388C148.857 31.375 148.469 31.3661 148.135 31.2357C147.632 31.0397 147.006 31.2347 146.59 30.7978C146.564 30.6623 146.501 30.5669 146.334 30.5723C145.72 30.5928 145.309 30.2722 144.955 29.8545C144.991 29.7101 144.856 29.7342 144.783 29.6964C143.915 29.5045 143.271 29.0138 142.754 28.3523C142.801 28.2606 142.825 28.1447 142.898 28.0834C143.129 27.889 143.345 27.6478 143.192 27.3825C143.049 27.1349 142.759 27.4714 142.537 27.3809C142.026 26.8349 141.389 26.742 140.67 26.9463C140.442 26.8224 140.448 26.4433 140.174 26.4262C139.428 26.3808 139.303 26.0089 139.446 25.3924C139.572 24.8462 139.298 24.5687 138.704 24.5922C138.188 24.8891 137.707 24.646 137.218 24.5357C136.47 24.4251 135.92 24.0324 135.463 23.4811C135.29 23.273 135.128 22.9642 134.731 23.113C134.577 23.0771 134.424 23.0401 134.271 23.0042C133.783 22.3583 133.215 21.9285 132.27 22.1102C131.932 22.1749 131.564 22.0538 131.315 21.6916C130.88 21.0584 130.153 20.7266 129.504 20.3217C129.291 20.1745 129.076 20.0263 128.862 19.8791C128.425 19.428 127.775 19.2604 127.311 18.844C127.155 18.6888 126.999 18.5345 126.843 18.3793C126.63 18.1591 126.629 17.8075 126.336 17.6373C126.041 17.4228 126.048 17.0527 125.894 16.7674C125.514 16.062 124.97 15.4241 124.786 14.6306C124.698 14.2536 124.51 13.9445 124.287 13.6417C124.234 13.5769 124.121 13.4939 124.137 13.4487C124.406 12.6585 123.67 12.7678 123.28 12.5855C122.61 12.2727 121.919 12.0329 121.147 12.2955C120.898 12.3949 120.582 12.2183 120.375 12.4831C120.079 12.6691 119.774 12.8406 119.49 13.0413C117.684 14.3152 116.127 15.8632 114.411 17.2378C111.513 19.5599 108.701 21.9805 105.85 24.3571C103.274 26.5056 100.694 28.6498 98.1175 30.7962C95.436 33.0313 92.7403 35.2527 90.0778 37.5089C86.8428 40.2482 83.6181 42.9991 80.3394 45.6911C77.6546 47.895 75.002 50.1336 72.3418 52.3638C69.0265 55.1441 65.716 57.9286 62.4064 60.7152C60.0022 62.7393 57.6028 64.7677 55.2015 66.7939C54.2256 66.4162 53.5002 66.8325 52.8481 67.4979C52.7741 67.5742 52.6647 67.6186 52.5791 67.6863C51.2509 68.7264 49.8104 69.6325 48.5615 70.7668C48.2755 70.9724 47.9773 71.1624 47.7066 71.3847C45.3548 73.3234 43.0173 75.2778 40.6579 77.2081C36.6135 80.5166 32.8639 84.1287 28.6705 87.2963C25.2034 89.9146 21.9871 92.8531 18.6495 95.6392C18.4831 95.7779 18.1878 95.9119 18.2327 96.1104C18.3788 96.7538 17.8297 96.9758 17.4871 97.3277C16.9629 97.7473 16.4392 98.156 17.0253 98.87C17.1232 98.9902 16.9729 99.1477 16.8611 99.2971C16.2446 100.127 16.1798 101.212 16.6624 101.795C16.7614 102.109 16.9066 102.383 17.284 102.461C17.5151 102.466 17.7133 102.389 17.8984 102.254C18.3436 101.931 18.7776 101.846 19.1766 102.304C19.3184 102.467 19.5302 102.497 19.7233 102.46C20.3926 102.335 20.5086 102.689 20.4071 103.182C20.2979 103.709 20.5613 104.232 20.9126 104.372C21.407 104.571 21.5153 104.899 21.6808 105.264C21.6788 105.322 21.6758 105.38 21.6738 105.438C21.6646 105.499 21.6554 105.562 21.6473 105.624C21.7814 106.344 21.9907 107.024 22.689 107.445C22.7222 107.538 22.7555 107.631 22.7887 107.725C22.8033 107.812 22.8188 107.9 22.8333 107.987C22.4631 108.837 23.1125 109.118 23.7072 109.431C24.1396 109.941 24.8938 109.976 25.3669 110.414C25.7301 110.75 26.1426 110.946 26.6475 110.981C27.1638 110.871 27.6203 111.009 28.0489 111.261C29.2361 111.405 30.4785 111.391 31.4022 112.277C31.4991 112.476 31.5172 112.745 31.8502 112.735C32.1488 112.81 32.3149 112.325 32.6246 112.533C33.2169 112.932 33.9244 113.194 34.3456 113.803C34.4677 113.98 34.5346 114.195 34.3144 114.292C33.8656 114.489 33.9406 114.804 34.0006 115.136C33.9488 115.521 33.8959 115.907 33.844 116.292C33.6962 116.927 33.6122 117.547 34.2311 118.013C34.2854 118.066 34.3388 118.118 34.3931 118.171C34.522 118.896 35.0397 119.422 35.4124 120.022C35.4304 120.022 35.4474 120.022 35.4654 120.022L35.4644 120.023L35.4124 120.022C35.3656 120.172 35.3536 120.325 35.474 120.439C36.4386 121.347 36.9312 122.593 37.8886 123.505C37.9413 123.629 37.994 123.752 38.0468 123.876C38.082 123.97 38.0898 124.091 38.1566 124.155C38.7995 124.756 39.2722 125.456 39.6697 126.233C40.0154 126.909 40.4853 127.547 41.2311 127.92C41.6053 128.003 41.9444 128.242 42.3638 128.129C42.7619 128.254 43.1693 128.433 43.5523 128.093C43.8817 127.802 44.2847 127.596 44.6114 127.32C46.6172 125.624 48.7638 124.092 50.796 122.428C52.7488 120.829 54.5466 119.068 56.5596 117.526C58.5298 116.016 60.2593 114.242 62.2331 112.721C64.3038 111.126 66.1149 109.245 68.2109 107.664C69.7705 106.486 71.1283 105.085 72.6915 103.896C74.5789 102.459 76.2331 100.765 78.1222 99.314C79.8757 97.9684 81.4522 96.4234 83.1845 95.0426C85.2445 93.4013 87.155 91.5941 89.2173 89.9479C91.3632 88.235 93.3439 86.3463 95.4711 84.6073C98.6154 82.0366 101.572 79.2599 104.738 76.7062L104.789 76.6638L104.838 76.6202C105.467 76.197 106.111 75.8326 106.922 76.0736C106.955 76.0834 107.004 76.0498 107.046 76.0359C108.053 75.6962 109.01 75.2729 109.769 74.5229C109.871 74.4881 109.996 74.4795 110.07 74.4162C111.335 73.3368 112.677 72.3465 113.99 71.3217C115.219 70.3626 116.309 69.2581 117.575 68.328C119.007 67.2752 120.256 66.0097 121.664 64.9126C123.335 63.6118 124.861 62.1463 126.534 60.8385C127.969 59.7159 129.233 58.4111 130.718 57.33C132.049 56.3611 133.193 55.1783 134.505 54.1705C136.419 52.6999 138.114 50.9847 140.036 49.5096C141.866 48.1048 143.53 46.5132 145.3 45.0372C147.895 42.8728 150.471 40.6843 153.039 38.4884C154.104 37.5779 155.201 36.7022 156.285 35.8097C156.388 35.7239 156.492 35.6451 156.64 35.6688C156.806 35.5241 156.971 35.3794 157.136 35.2347C157.172 35.0933 157.206 34.9529 157.242 34.8116C157.45 34.0122 157.146 33.6911 156.263 33.7839Z" fill="white"/>
</g>
<defs>
<filter id="filter0_d_601_7733" x="0.34375" y="0.183105" width="172.961" height="148.106" filterUnits="userSpaceOnUse" color-interpolation-filters="sRGB">
<feFlood flood-opacity="0" result="BackgroundImageFix"/>
<feColorMatrix in="SourceAlpha" type="matrix" values="0 0 0 0 0 0 0 0 0 0 0 0 0 0 0 0 0 0 127 0" result="hardAlpha"/>
<feOffset dy="4"/>
<feGaussianBlur stdDeviation="8"/>
<feComposite in2="hardAlpha" operator="out"/>
<feColorMatrix type="matrix" values="0 0 0 0 0 0 0 0 0 0 0 0 0 0 0 0 0 0 0.25 0"/>
<feBlend mode="normal" in2="BackgroundImageFix" result="effect1_dropShadow_601_7733"/>
<feBlend mode="normal" in="SourceGraphic" in2="effect1_dropShadow_601_7733" result="shape"/>
</filter>
</defs>
</svg>
